<?xml version="1.0" encoding="utf-8"?>
<svg version="1.1" xmlns:xlink="http://www.w3.org/1999/xlink" width="32px" height="27px" xmlns="http://www.w3.org/2000/svg">
  <g transform="matrix(1 0 0 1 -146 -190 )">
    <path d="M 29 24.0085227272727  C 29.3589743589744 23.6505681818182  29.5384615384615 23.2159090909091  29 22.7045454545455  L 29 9.20454545454546  C 29.5384615384615 8.69318181818182  29.3589743589744 8.25852272727272  29 7.90056818181818  C 28.6410256410256 7.54261363636363  28.2051282051282 7.36363636363636  27.6923076923077 7.36363636363636  L 14.1538461538462 7.36363636363636  C 13.6410256410256 7.36363636363636  13.2051282051282 7.18465909090909  12.8461538461538 6.82670454545455  C 12.4871794871795 6.46875  12.3076923076923 6.03409090909091  12.3076923076923 5.52272727272727  L 12.3076923076923 4.29545454545455  C 12.3076923076923 3.78409090909091  12.1282051282051 3.34943181818181  11.7692307692308 2.99147727272727  C 11.4102564102564 2.63352272727273  10.974358974359 2.45454545454546  10.4615384615385 2.45454545454546  L 4.30769230769231 2.45454545454546  C 3.7948717948718 2.45454545454546  3.35897435897436 2.63352272727273  3 2.99147727272727  C 2.64102564102564 3.34943181818181  2.46153846153846 3.78409090909091  3 4.29545454545455  L 3 22.7045454545455  C 2.46153846153846 23.2159090909091  2.64102564102564 23.6505681818182  3 24.0085227272727  C 3.35897435897436 24.3664772727273  3.7948717948718 24.5454545454545  4.30769230769231 24.5454545454545  L 27.6923076923077 24.5454545454545  C 28.2051282051282 24.5454545454545  28.6410256410256 24.3664772727273  29 24.0085227272727  Z M 30.7307692307692 6.17471590909091  C 31.5769230769231 7.01846590909091  32 8.02840909090909  32 9.20454545454546  L 32 22.7045454545455  C 32 23.8806818181818  31.5769230769231 24.890625  30.7307692307692 25.734375  C 29.8846153846154 26.578125  28.8717948717949 27  27.6923076923077 27  L 4.30769230769231 27  C 3.12820512820513 27  2.11538461538462 26.578125  1.26923076923077 25.734375  C 0.423076923076923 24.890625  0 23.8806818181818  0 22.7045454545455  L 0 4.29545454545455  C 0 3.11931818181818  0.423076923076923 2.109375  1.26923076923077 1.265625  C 2.11538461538462 0.421875  3.12820512820513 0  4.30769230769231 0  L 10.4615384615385 0  C 11.6410256410256 0  12.6538461538462 0.421875  13.5 1.265625  C 14.3461538461538 2.109375  14.7692307692308 3.11931818181818  14.7692307692308 4.29545454545455  L 14.7692307692308 5  L 27.6923076923077 5  C 28.8717948717949 4.90909090909091  29.8846153846154 5.33096590909091  30.7307692307692 6.17471590909091  Z " fill-rule="nonzero" fill="#7e7e7e" stroke="none" transform="matrix(1 0 0 1 146 190 )" />
  </g>
</svg>