<?xml version="1.0" encoding="utf-8"?>
<svg version="1.1" xmlns:xlink="http://www.w3.org/1999/xlink" width="10px" height="10px" xmlns="http://www.w3.org/2000/svg">
  <g transform="matrix(1 0 0 1 -86 -102 )">
    <path d="M 10 5  C 10 5.10752688172043  9.93886743886744 5.20057899090157  9.81660231660232 5.27915632754342  L 2.65444015444015 9.88213399503722  C 2.53217503217503 9.96071133167907  2.38738738738739 10  2.22007722007722 10  C 2.05276705276705 10  1.90797940797941 9.96071133167907  1.78571428571429 9.88213399503722  L 0.183397683397683 8.85235732009926  C 0.0611325611325612 8.7737799834574  0 8.68072787427626  0 8.57320099255583  C 0 8.4656741108354  0.0611325611325612 8.37262200165426  0.183397683397683 8.29404466501241  L 5.30888030888031 5  L 0.183397683397683 1.70595533498759  C 0.0611325611325612 1.62737799834574  0 1.5343258891646  0 1.42679900744417  C 0 1.31927212572374  0.0611325611325612 1.2262200165426  0.183397683397683 1.14764267990074  L 1.78571428571429 0.117866004962779  C 1.90797940797941 0.0392886683209259  2.05276705276705 0  2.22007722007722 0  C 2.38738738738739 0  2.53217503217503 0.0392886683209259  2.65444015444015 0.117866004962779  L 9.81660231660232 4.72084367245658  C 9.93886743886744 4.79942100909843  10 4.89247311827957  10 5  Z " fill-rule="nonzero" fill="#e6e6e6" stroke="none" transform="matrix(1 0 0 1 86 102 )" />
  </g>
</svg>